<?xml version="1.0" standalone="no"?>
<!DOCTYPE svg PUBLIC "-//W3C//DTD SVG 20010904//EN"
 "http://www.w3.org/TR/2001/REC-SVG-20010904/DTD/svg10.dtd">
<svg version="1.0" xmlns="http://www.w3.org/2000/svg"
 width="560.000000pt" height="743.000000pt" viewBox="0 0 560.000000 743.000000"
 preserveAspectRatio="xMidYMid meet">

<g transform="translate(0.000000,743.000000) scale(0.100000,-0.100000)"
fill="#f54a00" stroke="none">
<path d="M1115 7419 c-313 -48 -566 -277 -645 -584 -27 -107 -27 -273 0 -380
58 -227 202 -403 415 -510 110 -55 203 -75 344 -75 311 0 568 164 705 449 54
113 69 197 64 359 -4 114 -9 150 -30 212 -44 125 -95 206 -193 305 -73 74
-107 100 -182 138 -51 26 -125 56 -165 66 -91 23 -234 32 -313 20z m343 -72
c243 -85 437 -298 488 -536 18 -87 18 -242 -1 -333 -41 -194 -197 -394 -381
-486 -130 -65 -176 -76 -334 -76 -129 0 -153 3 -222 26 -125 42 -204 91 -304
193 -78 78 -99 106 -137 186 -204 422 22 917 476 1040 107 29 313 22 415 -14z"/>
<path d="M1082 7255 c-30 -7 -92 -31 -138 -55 -268 -132 -405 -453 -315 -740
80 -256 329 -440 593 -440 106 0 167 15 276 66 216 101 352 317 352 559 0 171
-62 318 -184 441 -80 80 -192 144 -299 169 -75 18 -213 18 -285 0z"/>
<path d="M2720 7424 c-14 -2 -52 -9 -85 -15 -174 -31 -363 -154 -471 -306
-100 -139 -144 -278 -144 -455 0 -322 165 -580 457 -715 99 -46 185 -63 318
-63 133 0 219 17 318 63 224 104 377 285 438 520 24 91 26 283 4 375 -31 133
-123 291 -221 382 -99 92 -235 167 -357 195 -67 15 -215 27 -257 19z m254 -64
c249 -63 452 -255 528 -500 20 -65 23 -95 22 -220 0 -130 -3 -153 -27 -225
-62 -186 -200 -341 -383 -431 -210 -103 -448 -99 -662 10 -158 81 -302 251
-358 422 -27 82 -29 100 -29 234 1 132 3 152 29 225 83 241 276 421 518 485
101 26 260 26 362 0z"/>
<path d="M2647 7254 c-99 -24 -214 -90 -292 -169 -110 -110 -172 -244 -182
-397 -13 -194 65 -386 209 -513 62 -54 187 -118 273 -140 76 -19 204 -19 280
0 341 87 542 408 470 749 -47 222 -241 418 -468 471 -77 18 -213 18 -290 -1z"/>
<path d="M4268 7420 c-257 -32 -483 -193 -598 -425 -63 -128 -83 -210 -83
-350 0 -140 20 -222 83 -350 101 -204 288 -354 511 -409 96 -23 274 -22 373 4
263 69 464 257 552 515 39 115 46 304 15 425 -42 165 -143 326 -269 426 -71
56 -216 127 -302 147 -86 21 -199 27 -282 17z m275 -59 c327 -84 557 -380 557
-717 0 -113 -25 -217 -77 -324 -40 -82 -60 -108 -142 -190 -105 -105 -179
-150 -311 -192 -64 -20 -95 -23 -215 -22 -119 0 -150 4 -205 23 -322 112 -520
380 -520 702 0 106 11 174 41 257 81 223 278 402 509 462 103 26 261 27 363 1z"/>
<path d="M4218 7254 c-102 -24 -216 -89 -294 -168 -122 -123 -184 -271 -184
-440 0 -172 59 -315 181 -438 63 -65 91 -85 170 -122 110 -51 171 -66 277 -66
98 0 175 19 277 70 380 187 462 694 160 996 -58 58 -91 81 -166 117 -52 25
-118 50 -147 56 -71 15 -204 12 -274 -5z"/>
<path d="M1099 5850 c-243 -39 -472 -214 -579 -441 -114 -244 -90 -549 61
-771 144 -211 384 -338 640 -338 312 0 580 168 710 445 59 127 72 199 67 367
-4 131 -7 150 -37 231 -69 185 -213 346 -383 431 -51 25 -122 52 -158 61 -81
19 -247 27 -321 15z m285 -51 c254 -49 490 -276 556 -535 27 -105 27 -263 0
-368 -63 -249 -241 -436 -501 -527 -55 -20 -84 -23 -209 -23 -129 0 -153 3
-222 26 -122 41 -204 92 -299 187 -95 95 -147 178 -187 299 -22 67 -26 95 -26
212 -1 149 12 217 64 324 86 180 267 337 455 392 107 31 249 36 369 13z"/>
<path d="M2675 5851 c-305 -50 -560 -282 -635 -577 -28 -107 -27 -282 0 -390
76 -296 318 -522 616 -574 88 -16 267 -8 349 15 197 54 384 204 479 384 60
115 86 224 86 365 0 71 -6 147 -15 184 -66 278 -289 505 -567 578 -72 18 -242
26 -313 15z m313 -62 c259 -68 473 -292 527 -550 19 -89 19 -234 0 -324 -8
-38 -35 -110 -59 -160 -76 -152 -190 -266 -342 -341 -363 -178 -796 -28 -979
341 -60 120 -79 216 -72 360 8 182 67 325 185 456 187 207 469 290 740 218z"/>
<path d="M2635 5685 c-160 -44 -327 -181 -398 -326 -170 -346 0 -752 366 -877
251 -85 547 13 700 232 108 155 143 341 97 520 -29 114 -73 189 -165 281 -86
86 -180 142 -285 170 -69 18 -247 18 -315 0z"/>
<path d="M4244 5851 c-164 -26 -329 -115 -445 -239 -89 -95 -132 -165 -170
-274 -144 -421 74 -862 496 -1004 116 -38 306 -45 423 -15 268 69 469 256 558
516 39 115 46 304 15 425 -73 288 -282 501 -566 576 -71 18 -238 26 -311 15z
m316 -62 c185 -49 356 -186 454 -363 52 -93 77 -186 83 -306 8 -143 -13 -245
-74 -370 -40 -81 -61 -109 -142 -190 -143 -143 -281 -206 -471 -217 -220 -13
-411 60 -564 213 -147 147 -216 313 -216 519 0 135 20 222 77 335 87 175 261
321 448 376 120 35 277 36 405 3z"/>
<path d="M1099 4280 c-243 -39 -472 -214 -579 -441 -114 -244 -90 -549 61
-771 144 -211 384 -338 640 -338 312 0 580 168 710 445 59 127 72 199 67 367
-4 131 -7 150 -37 231 -69 185 -213 346 -383 431 -51 25 -122 52 -158 61 -81
19 -247 27 -321 15z m285 -51 c254 -49 490 -276 556 -535 27 -105 27 -263 0
-369 -35 -137 -82 -218 -190 -325 -109 -109 -186 -158 -310 -197 -72 -23 -103
-27 -205 -28 -71 0 -142 6 -174 14 -257 66 -456 250 -539 499 -22 67 -26 95
-26 212 -1 199 37 315 150 459 177 227 449 326 738 270z"/>
<path d="M2675 4281 c-305 -50 -560 -282 -635 -577 -28 -107 -27 -282 0 -390
76 -296 318 -522 616 -574 88 -16 267 -8 349 15 197 54 384 204 479 384 60
115 86 224 86 365 0 71 -6 147 -15 184 -66 278 -289 505 -567 578 -72 18 -242
26 -313 15z m313 -62 c264 -70 476 -296 531 -567 15 -74 13 -224 -4 -307 -8
-38 -36 -113 -61 -165 -40 -80 -61 -109 -138 -185 -137 -136 -256 -195 -437
-218 -227 -28 -436 48 -610 223 -71 71 -94 103 -133 181 -61 125 -80 219 -73
364 8 182 67 325 185 456 187 207 469 290 740 218z"/>
<path d="M2710 4130 c-141 -22 -270 -91 -370 -197 -121 -129 -177 -282 -167
-458 25 -453 505 -731 904 -524 388 200 462 710 146 1009 -138 131 -337 197
-513 170z"/>
<path d="M4244 4281 c-164 -26 -329 -115 -445 -239 -89 -95 -132 -165 -170
-274 -144 -420 74 -863 496 -1003 104 -35 283 -45 392 -22 158 34 273 97 394
217 162 160 229 323 229 555 0 355 -237 659 -585 751 -71 18 -238 26 -311 15z
m316 -62 c185 -49 356 -186 454 -363 52 -93 77 -186 83 -306 8 -143 -13 -245
-75 -370 -80 -163 -250 -313 -418 -369 -201 -67 -430 -45 -604 56 -79 47 -200
159 -250 234 -81 118 -120 250 -120 404 0 135 20 222 77 335 87 175 261 321
448 376 120 35 277 36 405 3z"/>
<path d="M2848 2674 c-176 -42 -290 -161 -305 -317 -14 -152 78 -288 234 -347
32 -12 141 -43 243 -70 204 -52 244 -66 294 -105 88 -67 88 -203 -1 -287 -15
-15 -50 -37 -78 -50 -44 -20 -65 -23 -185 -23 -170 0 -226 19 -311 104 -47 48
-58 66 -74 124 -17 65 -19 67 -50 67 -18 0 -54 -3 -80 -7 l-48 -6 7 -61 c24
-230 248 -386 553 -386 262 1 441 115 490 315 30 124 -7 244 -104 336 -69 65
-123 88 -323 138 -283 70 -344 95 -380 154 -21 34 -27 108 -11 149 25 66 111
115 224 127 171 19 297 -23 354 -118 17 -29 34 -70 38 -91 l6 -38 82 5 c45 3
84 7 86 9 2 2 -1 28 -7 58 -34 167 -155 282 -337 321 -87 18 -241 18 -317 -1z"/>
<path d="M690 2590 l0 -80 220 0 220 0 0 -590 0 -590 90 0 90 0 0 590 0 590
220 0 220 0 0 80 0 80 -530 0 -530 0 0 -80z"/>
<path d="M2010 2000 l0 -670 85 0 85 0 0 670 0 670 -85 0 -85 0 0 -670z"/>
<path d="M4201 2648 c-5 -13 -118 -306 -251 -653 -134 -346 -245 -638 -248
-648 -4 -16 3 -18 88 -15 l93 3 71 200 71 200 282 3 281 2 50 -127 c27 -71 62
-163 78 -205 l29 -78 99 0 c89 0 98 2 93 18 -2 9 -122 305 -267 657 -144 352
-264 646 -267 653 -4 8 -33 12 -99 12 -89 0 -95 -1 -103 -22z m243 -523 c47
-126 86 -233 86 -237 0 -5 -102 -8 -226 -8 -211 0 -226 1 -219 18 49 122 168
455 184 517 12 44 25 87 28 95 3 8 17 -23 33 -70 15 -47 66 -188 114 -315z"/>
</g>
</svg>
